<svg width="32" height="32" viewBox="0 0 32 32" fill="none" xmlns="http://www.w3.org/2000/svg">
<g clip-path="url(#clip0_1_162)">
<path d="M12.1359 23.4451L8.63594 21.5751L8.50094 21.5001C8.26143 21.4268 8.00545 21.4268 7.76594 21.5001L4.91094 23.1001V5.45011C4.92249 5.29358 4.99492 5.14781 5.11269 5.04406C5.23046 4.94031 5.3842 4.88684 5.54094 4.89511H18.7409C18.8977 4.88684 19.0514 4.94031 19.1692 5.04406C19.287 5.14781 19.3594 5.29358 19.3709 5.45011V14.1151C19.8798 13.9304 20.4057 13.7964 20.9409 13.7151V5.45011C20.9364 5.16579 20.8759 4.88515 20.7628 4.62422C20.6498 4.36329 20.4865 4.12719 20.2822 3.92939C20.0779 3.7316 19.8366 3.57598 19.5722 3.47144C19.3077 3.3669 19.0253 3.31548 18.7409 3.32011H5.53594C5.25162 3.31548 4.96917 3.3669 4.70472 3.47144C4.44028 3.57598 4.19901 3.7316 3.99472 3.92939C3.79042 4.12719 3.62709 4.36329 3.51406 4.62422C3.40102 4.88515 3.3405 5.16579 3.33594 5.45011V23.7001C3.33627 23.8899 3.3818 24.0768 3.46875 24.2455C3.55569 24.4142 3.68156 24.5597 3.83594 24.6701C3.99473 24.7892 4.17903 24.8696 4.37427 24.9052C4.56952 24.9408 4.77036 24.9305 4.96094 24.8751L8.14594 23.0851L11.6459 24.9551L11.8009 25.0151C11.9179 25.0492 12.0391 25.0661 12.1609 25.0651C12.2766 25.0586 12.391 25.0367 12.5009 25.0001L13.8759 24.2701C13.7426 23.7343 13.6622 23.1867 13.6359 22.6351L12.1359 23.4451Z" fill="#101357"/>
<path d="M12.2886 9.16986C12.04 9.15032 11.7902 9.1849 11.5562 9.27121C11.3223 9.35753 11.1099 9.49354 10.9336 9.66986C10.6118 10.093 10.457 10.6198 10.4986 11.1499V12.1499H10.1836V12.7699H10.4986V13.3899H10.1836V13.9999H10.4986V15.2799C10.4642 15.8092 10.6262 16.3325 10.9536 16.7499C11.1299 16.9262 11.3423 17.0622 11.5762 17.1485C11.8102 17.2348 12.06 17.2694 12.3086 17.2499C12.558 17.2698 12.8087 17.2354 13.0435 17.1491C13.2783 17.0628 13.4915 16.9266 13.6686 16.7499C13.996 16.3325 14.158 15.8092 14.1236 15.2799V14.6299H12.9336V15.3699C12.9527 15.577 12.8978 15.7843 12.7786 15.9549C12.7215 16.0176 12.6509 16.0665 12.572 16.0977C12.4931 16.1289 12.4081 16.1416 12.3236 16.1349C12.2391 16.1409 12.1544 16.1278 12.0756 16.0967C11.9968 16.0655 11.9261 16.017 11.8686 15.9549C11.7535 15.7826 11.7005 15.5762 11.7186 15.3699V13.9999H13.4486V13.3899H11.7186V12.7699H13.4486V12.1499H11.7186V11.0699C11.7002 10.8603 11.7531 10.6507 11.8686 10.4749C11.9261 10.4127 11.9968 10.3642 12.0756 10.333C12.1544 10.3019 12.2391 10.2888 12.3236 10.2949C12.4081 10.2881 12.4931 10.3008 12.572 10.332C12.6509 10.3632 12.7215 10.4121 12.7786 10.4749C12.8981 10.649 12.9529 10.8595 12.9336 11.0699V11.4999H14.1036V11.1499C14.1371 10.6207 13.9752 10.0976 13.6486 9.67986C13.4724 9.50135 13.2595 9.36328 13.0247 9.27521C12.7899 9.18715 12.5387 9.1512 12.2886 9.16986Z" fill="#101357"/>
<path d="M22.2653 15.1802C20.8668 15.1802 19.4997 15.595 18.3369 16.372C17.1741 17.1491 16.268 18.2536 15.733 19.5458C15.198 20.8379 15.0583 22.2597 15.3315 23.6313C15.6047 25.0029 16.2786 26.2626 17.2678 27.2512C18.2571 28.2397 19.5173 28.9127 20.8891 29.1849C22.2609 29.4572 23.6826 29.3164 24.9744 28.7806C26.2661 28.2447 27.37 27.3377 28.1462 26.1744C28.9225 25.0111 29.3363 23.6437 29.3353 22.2452C29.3327 20.3714 28.5868 18.5751 27.2613 17.2506C25.9359 15.9261 24.1391 15.1815 22.2653 15.1802ZM22.2653 27.7452C21.1775 27.7452 20.1141 27.4226 19.2097 26.8183C18.3052 26.2139 17.6003 25.3549 17.184 24.3499C16.7677 23.3449 16.6588 22.2391 16.871 21.1722C17.0832 20.1053 17.607 19.1253 18.3762 18.3561C19.1454 17.5869 20.1254 17.0631 21.1923 16.8509C22.2592 16.6386 23.3651 16.7476 24.3701 17.1638C25.3751 17.5801 26.2341 18.2851 26.8384 19.1895C27.4427 20.094 27.7653 21.1574 27.7653 22.2452C27.7653 22.9674 27.6231 23.6826 27.3467 24.3499C27.0703 25.0172 26.6651 25.6235 26.1544 26.1343C25.6437 26.645 25.0374 27.0501 24.3701 27.3265C23.7028 27.6029 22.9876 27.7452 22.2653 27.7452Z" fill="#101357"/>
<path d="M22.7399 20.1299H21.7949V21.7649H20.1699V22.7049H21.7949V24.3649H22.7399V22.7049H24.3599V21.7649H22.7399V20.1299Z" fill="#101357"/>
</g>
<defs>
<clipPath id="clip0_1_162">
<rect width="32" height="32" fill="white"/>
</clipPath>
</defs>
</svg>
