<svg width="32" height="32" viewBox="0 0 32 32" fill="none" xmlns="http://www.w3.org/2000/svg">
<g clip-path="url(#clip0_1_121)">
<path fill-rule="evenodd" clip-rule="evenodd" d="M26.155 6.71496H24.075V6.07496C24.075 5.64664 23.9049 5.23585 23.602 4.93298C23.2991 4.63011 22.8883 4.45996 22.46 4.45996C22.0317 4.45996 21.6209 4.63011 21.318 4.93298C21.0152 5.23585 20.845 5.64664 20.845 6.07496V6.71496H11.155V6.07496C11.155 5.64664 10.9848 5.23585 10.682 4.93298C10.3791 4.63011 9.96832 4.45996 9.54 4.45996C9.11168 4.45996 8.70089 4.63011 8.39802 4.93298C8.09515 5.23585 7.925 5.64664 7.925 6.07496V6.71496H5.845C5.35568 6.71496 4.88639 6.90934 4.54039 7.25535C4.19438 7.60135 4 8.07064 4 8.55996V25.69C4 26.1797 4.19422 26.6495 4.54008 26.9963C4.88595 27.3431 5.35522 27.5386 5.845 27.54H26.155C26.6448 27.5386 27.1141 27.3431 27.4599 26.9963C27.8058 26.6495 28 26.1797 28 25.69V8.55996C28 8.07064 27.8056 7.60135 27.4596 7.25535C27.1136 6.90934 26.6443 6.71496 26.155 6.71496ZM21.77 6.07496C21.7848 5.90146 21.8641 5.73981 21.9923 5.62202C22.1206 5.50422 22.2884 5.43886 22.4625 5.43886C22.6366 5.43886 22.8044 5.50422 22.9327 5.62202C23.0609 5.73981 23.1402 5.90146 23.155 6.07496V8.38496C23.1402 8.55846 23.0609 8.72011 22.9327 8.8379C22.8044 8.9557 22.6366 9.02106 22.4625 9.02106C22.2884 9.02106 22.1206 8.9557 21.9923 8.8379C21.8641 8.72011 21.7848 8.55846 21.77 8.38496V6.07496ZM8.845 6.07496C8.85976 5.90146 8.93911 5.73981 9.06734 5.62202C9.19558 5.50422 9.36337 5.43886 9.5375 5.43886C9.71163 5.43886 9.87942 5.50422 10.0077 5.62202C10.1359 5.73981 10.2152 5.90146 10.23 6.07496V8.38496C10.2152 8.55846 10.1359 8.72011 10.0077 8.8379C9.87942 8.9557 9.71163 9.02106 9.5375 9.02106C9.36337 9.02106 9.19558 8.9557 9.06734 8.8379C8.93911 8.72011 8.85976 8.55846 8.845 8.38496V6.07496ZM5.845 8.07496H7.925V8.35996C7.925 8.78828 8.09515 9.19907 8.39802 9.50194C8.70089 9.80481 9.11168 9.97496 9.54 9.97496C9.96832 9.97496 10.3791 9.80481 10.682 9.50194C10.9848 9.19907 11.155 8.78828 11.155 8.35996V8.09996H20.845V8.38496C20.845 8.81329 21.0152 9.22407 21.318 9.52694C21.6209 9.82981 22.0317 9.99996 22.46 9.99996C22.8883 9.99996 23.2991 9.82981 23.602 9.52694C23.9049 9.22407 24.075 8.81329 24.075 8.38496V8.09996H26.155C26.277 8.09996 26.394 8.14842 26.4803 8.23469C26.5665 8.32096 26.615 8.43796 26.615 8.55996V12.31H5.385V8.55996C5.385 8.43796 5.43346 8.32096 5.51973 8.23469C5.606 8.14842 5.723 8.09996 5.845 8.09996V8.07496ZM26.155 26.155H5.845C5.72254 26.1536 5.60555 26.1041 5.51942 26.017C5.4333 25.9299 5.38499 25.8124 5.385 25.69V13.23H26.615V25.69C26.615 25.8124 26.5667 25.9299 26.4806 26.017C26.3945 26.1041 26.2775 26.1536 26.155 26.155Z" fill="#101357"/>
<path d="M9.53961 17.9C9.92069 17.9 10.2296 17.5911 10.2296 17.21C10.2296 16.8289 9.92069 16.52 9.53961 16.52C9.15853 16.52 8.84961 16.8289 8.84961 17.21C8.84961 17.5911 9.15853 17.9 9.53961 17.9Z" fill="#101357"/>
<path d="M22.4595 17.9C22.8406 17.9 23.1495 17.5911 23.1495 17.21C23.1495 16.8289 22.8406 16.52 22.4595 16.52C22.0785 16.52 21.7695 16.8289 21.7695 17.21C21.7695 17.5911 22.0785 17.9 22.4595 17.9Z" fill="#101357"/>
<path d="M15.9986 17.9C16.3797 17.9 16.6886 17.5911 16.6886 17.21C16.6886 16.8289 16.3797 16.52 15.9986 16.52C15.6175 16.52 15.3086 16.8289 15.3086 17.21C15.3086 17.5911 15.6175 17.9 15.9986 17.9Z" fill="#101357"/>
<path d="M9.53961 22.975C9.92069 22.975 10.2296 22.666 10.2296 22.285C10.2296 21.9039 9.92069 21.595 9.53961 21.595C9.15853 21.595 8.84961 21.9039 8.84961 22.285C8.84961 22.666 9.15853 22.975 9.53961 22.975Z" fill="#101357"/>
<path d="M22.4595 22.975C22.8406 22.975 23.1495 22.666 23.1495 22.285C23.1495 21.9039 22.8406 21.595 22.4595 21.595C22.0785 21.595 21.7695 21.9039 21.7695 22.285C21.7695 22.666 22.0785 22.975 22.4595 22.975Z" fill="#101357"/>
<path d="M16.0005 22.975C16.3816 22.975 16.6905 22.666 16.6905 22.285C16.6905 21.9039 16.3816 21.595 16.0005 21.595C15.6195 21.595 15.3105 21.9039 15.3105 22.285C15.3105 22.666 15.6195 22.975 16.0005 22.975Z" fill="#101357"/>
</g>
<defs>
<clipPath id="clip0_1_121">
<rect width="32" height="32" fill="white"/>
</clipPath>
</defs>
</svg>
