<svg width="32" height="32" viewBox="0 0 32 32" fill="none" xmlns="http://www.w3.org/2000/svg">
<g clip-path="url(#clip0_1_134)">
<path d="M15.665 14.74C16.6565 13.975 17.3839 12.919 17.745 11.7199C18.1062 10.5208 18.0831 9.23871 17.6791 8.05338C17.275 6.86805 16.5101 5.83886 15.4917 5.11008C14.4733 4.38129 13.2523 3.98944 12 3.98944C10.7477 3.98944 9.52674 4.38129 8.50832 5.11008C7.4899 5.83886 6.72504 6.86805 6.32094 8.05338C5.91685 9.23871 5.89377 10.5208 6.25495 11.7199C6.61613 12.919 7.34346 13.975 8.335 14.74C7.08591 15.1008 5.98782 15.8575 5.206 16.8964C4.42418 17.9352 4.00094 19.1998 4 20.5V26C4 26.5304 4.21071 27.0391 4.58579 27.4142C4.96086 27.7893 5.46957 28 6 28H18C18.5304 28 19.0391 27.7893 19.4142 27.4142C19.7893 27.0391 20 26.5304 20 26V20.5C19.9991 19.1998 19.5758 17.9352 18.794 16.8964C18.0122 15.8575 16.9141 15.1008 15.665 14.74ZM7.5 10C7.5 9.10998 7.76392 8.23995 8.25839 7.49993C8.75285 6.75991 9.45566 6.18313 10.2779 5.84254C11.1002 5.50194 12.005 5.41283 12.8779 5.58646C13.7508 5.7601 14.5526 6.18868 15.182 6.81802C15.8113 7.44735 16.2399 8.24918 16.4135 9.12209C16.5872 9.995 16.4981 10.8998 16.1575 11.7221C15.8169 12.5443 15.2401 13.2471 14.5001 13.7416C13.76 14.2361 12.89 14.5 12 14.5C10.8065 14.5 9.66193 14.0259 8.81802 13.182C7.97411 12.3381 7.5 11.1935 7.5 10ZM18.5 26C18.5 26.1326 18.4473 26.2598 18.3536 26.3535C18.2598 26.4473 18.1326 26.5 18 26.5H6C5.86739 26.5 5.74021 26.4473 5.64645 26.3535C5.55268 26.2598 5.5 26.1326 5.5 26V20.5C5.5 19.3065 5.97411 18.1619 6.81802 17.318C7.66193 16.4741 8.80653 16 10 16H14C15.1935 16 16.3381 16.4741 17.182 17.318C18.0259 18.1619 18.5 19.3065 18.5 20.5V26Z" fill="#101357"/>
<path d="M23.6648 14.7401C24.8384 13.8222 25.6286 12.5004 25.8814 11.032C26.1342 9.56361 25.8316 8.05368 25.0325 6.79608C24.2334 5.53849 22.995 4.62322 21.5583 4.2284C20.1215 3.83358 18.5893 3.98747 17.2598 4.66011C17.6321 5.02409 17.9671 5.42441 18.2598 5.85511C18.81 5.62107 19.4018 5.50033 19.9998 5.50011C20.6664 5.50057 21.3246 5.64914 21.9267 5.93506C22.5289 6.22099 23.0601 6.63713 23.4818 7.15341C23.9035 7.66969 24.2052 8.27321 24.3652 8.92035C24.5251 9.56749 24.5393 10.2421 24.4067 10.8954C24.274 11.5487 23.9979 12.1643 23.5983 12.6979C23.1986 13.2314 22.6855 13.6695 22.0958 13.9805C21.5062 14.2914 20.8548 14.4675 20.1888 14.496C19.5228 14.5245 18.8588 14.4046 18.2448 14.1451C18.2217 14.189 18.1949 14.2308 18.1648 14.2701C18.8685 14.7406 19.4887 15.3253 19.9998 16.0001H21.9998C23.1932 16.0001 24.3378 16.4742 25.1817 17.3181C26.0257 18.162 26.4998 19.3066 26.4998 20.5001V26.0001C26.4998 26.1327 26.4471 26.2599 26.3533 26.3537C26.2596 26.4474 26.1324 26.5001 25.9998 26.5001H21.4598C21.3883 27.0407 21.1858 27.5557 20.8698 28.0001H25.9998C26.5302 28.0001 27.0389 27.7894 27.414 27.4143C27.7891 27.0392 27.9998 26.5305 27.9998 26.0001V20.5001C27.9988 19.2 27.5756 17.9353 26.7938 16.8965C26.0119 15.8577 24.9139 15.1009 23.6648 14.7401Z" fill="#101357"/>
</g>
<defs>
<clipPath id="clip0_1_134">
<rect width="32" height="32" fill="white"/>
</clipPath>
</defs>
</svg>
