<svg width="32" height="32" viewBox="0 0 32 32" fill="none" xmlns="http://www.w3.org/2000/svg">
<path d="M11.942 7.74737L5.88483 21.336H9.17399L10.3827 18.4134C10.3945 18.3837 10.4243 18.3638 10.456 18.3638H16.7906C16.8223 18.3638 16.852 18.3837 16.8639 18.4134L18.0726 21.336H21.441L15.364 7.74737C15.2867 7.57696 15.1183 7.466 14.93 7.466H12.376C12.1877 7.466 12.0173 7.57696 11.942 7.74737ZM11.4784 15.8177L13.5589 10.7948C13.5866 10.7294 13.6778 10.7294 13.7055 10.7948L15.786 15.8177C15.8078 15.8692 15.7702 15.9267 15.7127 15.9267H11.5517C11.4942 15.9267 11.4566 15.8692 11.4784 15.8177Z" fill="white"/>
<path d="M24.5697 21.336C25.4232 21.336 26.1152 20.644 26.1152 19.7904C26.1152 18.9369 25.4232 18.2449 24.5697 18.2449C23.7161 18.2449 23.0242 18.9369 23.0242 19.7904C23.0242 20.644 23.7161 21.336 24.5697 21.336Z" fill="white"/>
</svg>
