<svg width="32" height="32" viewBox="0 0 32 32" fill="none" xmlns="http://www.w3.org/2000/svg">
<path d="M24.92 10.095C24.5868 8.1693 23.6321 6.40573 22.2018 5.07391C20.7716 3.74209 18.9445 2.91532 17 2.71999C15.7459 2.57989 14.4764 2.70127 13.2716 3.07649C12.0667 3.4517 10.9528 4.0726 10 4.89999C9.0627 5.70461 8.30962 6.70161 7.79196 7.82321C7.2743 8.9448 7.0042 10.1647 7 11.4C6.99913 12.5809 7.24434 13.7491 7.72 14.83L8 15.44C8.115 15.695 8.23 15.94 8.33 16.185L8.635 16.89C9.15713 18.0347 9.57385 19.2246 9.88 20.445C10.1431 21.581 10.2723 22.7439 10.265 23.91C10.2675 23.955 10.2675 24 10.265 24.045V26.08C10.2689 26.9382 10.6105 27.7603 11.2159 28.3685C11.8213 28.9767 12.6419 29.3221 13.5 29.33H18.45C18.8763 29.33 19.2985 29.2459 19.6922 29.0824C20.086 28.919 20.4436 28.6794 20.7446 28.3775C21.0456 28.0756 21.284 27.7172 21.4462 27.323C21.6085 26.9287 21.6913 26.5063 21.69 26.08V23.96C21.6894 22.7813 21.827 21.6066 22.1 20.46C22.4131 19.2294 22.8365 18.0296 23.365 16.875L23.67 16.17L24.015 15.4L24.275 14.81C24.7539 13.7282 25.0009 12.5581 25 11.375C25.0032 10.947 24.9764 10.5193 24.92 10.095ZM11.79 23.285C11.79 23.065 11.79 22.855 11.755 22.645H20.2C20.2 22.865 20.17 23.09 20.16 23.325C20.15 23.56 20.16 23.655 20.16 23.825H11.8C11.8 23.64 11.8 23.46 11.79 23.285ZM13.955 12.33H12.955C12.7572 12.33 12.5639 12.2713 12.3994 12.1615C12.235 12.0516 12.1068 11.8954 12.0311 11.7127C11.9554 11.53 11.9356 11.3289 11.9742 11.1349C12.0128 10.9409 12.108 10.7627 12.2479 10.6229C12.3877 10.483 12.5659 10.3878 12.7599 10.3492C12.9539 10.3106 13.155 10.3304 13.3377 10.4061C13.5204 10.4818 13.6766 10.61 13.7865 10.7744C13.8964 10.9389 13.955 11.1322 13.955 11.33V12.33ZM17.04 21.645H14.955V13.33H17.04V21.645ZM11.805 25.81V24.81H20.14V25.81H11.805ZM18.46 27.81H13.5C13.1725 27.8114 12.8517 27.7176 12.5765 27.5401C12.3014 27.3626 12.0837 27.1089 11.95 26.81H20C19.8743 27.1142 19.6605 27.3739 19.3861 27.5557C19.1117 27.7375 18.7892 27.833 18.46 27.83V27.81ZM23.185 13.31C23.0943 13.6167 22.9841 13.9173 22.855 14.21L22.595 14.8L22.505 15.005L22.125 15.86C21.98 16.185 21.845 16.505 21.715 16.815C21.3014 17.7746 20.9555 18.762 20.68 19.77C20.5232 20.3806 20.4029 21 20.32 21.625H18.04V13.33H19.04C19.4356 13.33 19.8222 13.2127 20.1511 12.9929C20.48 12.7732 20.7364 12.4608 20.8878 12.0954C21.0391 11.7299 21.0787 11.3278 21.0016 10.9398C20.9244 10.5519 20.7339 10.1955 20.4542 9.91578C20.1745 9.63608 19.8181 9.44559 19.4302 9.36842C19.0422 9.29125 18.6401 9.33086 18.2746 9.48224C17.9092 9.63361 17.5968 9.88996 17.3771 10.2189C17.1573 10.5478 17.04 10.9344 17.04 11.33V12.33H14.955V11.33C14.955 10.9344 14.8377 10.5478 14.6179 10.2189C14.3982 9.88996 14.0858 9.63361 13.7204 9.48224C13.3549 9.33086 12.9528 9.29125 12.5648 9.36842C12.1769 9.44559 11.8205 9.63608 11.5408 9.91578C11.2611 10.1955 11.0706 10.5519 10.9934 10.9398C10.9163 11.3278 10.9559 11.7299 11.1072 12.0954C11.2586 12.4608 11.515 12.7732 11.8439 12.9929C12.1728 13.2127 12.5594 13.33 12.955 13.33H13.955V21.645H11.645C11.5682 21.0149 11.4513 20.3903 11.295 19.775C11.0334 18.7721 10.6992 17.7895 10.295 16.835L9.885 15.87C9.76 15.6 9.64 15.315 9.51 15.025C9.48034 14.9681 9.45364 14.9097 9.43 14.85L9.15 14.225C9.02273 13.9344 8.9158 13.6354 8.83 13.33C8.64737 12.6978 8.55479 12.043 8.555 11.385C8.55321 10.3647 8.77057 9.35587 9.19239 8.42683C9.61421 7.49779 10.2307 6.67018 11 5.99999C12.3867 4.79663 14.164 4.13904 16 4.14999C16.2773 4.15016 16.5543 4.16519 16.83 4.19499C18.4396 4.35568 19.9524 5.03902 21.137 6.14057C22.3216 7.24212 23.1129 8.70127 23.39 10.295C23.5432 11.3095 23.4732 12.3453 23.185 13.33V13.31ZM18.04 12.31V11.31C18.04 11.1122 18.0986 10.9189 18.2085 10.7544C18.3184 10.59 18.4746 10.4618 18.6573 10.3861C18.84 10.3104 19.0411 10.2906 19.2351 10.3292C19.4291 10.3678 19.6073 10.463 19.7471 10.6029C19.887 10.7427 19.9822 10.9209 20.0208 11.1149C20.0594 11.3089 20.0396 11.51 19.9639 11.6927C19.8882 11.8754 19.76 12.0316 19.5956 12.1415C19.4311 12.2513 19.2378 12.31 19.04 12.31H18.04Z" fill="#101357"/>
</svg>
