<svg width="32" height="32" viewBox="0 0 32 32" fill="none" xmlns="http://www.w3.org/2000/svg">
<g clip-path="url(#clip0_1_157)">
<path d="M19.855 14.765C21.0086 13.9471 21.8721 12.7835 22.3207 11.4425C22.7693 10.1014 22.7798 8.65243 22.3506 7.30505C21.9214 5.95767 21.0748 4.78171 19.9332 3.94722C18.7916 3.11274 17.4141 2.66298 16 2.66298C14.5859 2.66298 13.2085 3.11274 12.0669 3.94722C10.9253 4.78171 10.0786 5.95767 9.64943 7.30505C9.22023 8.65243 9.2307 10.1014 9.67932 11.4425C10.1279 12.7835 10.9915 13.9471 12.145 14.765C10.2527 15.0497 8.52505 16.0032 7.2756 17.4526C6.02615 18.9021 5.33765 20.7514 5.33502 22.665V27.33C5.33502 27.8604 5.54574 28.3691 5.92081 28.7442C6.29588 29.1193 6.80459 29.33 7.33502 29.33H24.665C25.1955 29.33 25.7042 29.1193 26.0792 28.7442C26.4543 28.3691 26.665 27.8604 26.665 27.33V22.665C26.6624 20.7514 25.9739 18.9021 24.7244 17.4526C23.475 16.0032 21.7474 15.0497 19.855 14.765ZM10.855 9.335C10.855 8.31261 11.1585 7.31322 11.7269 6.46341C12.2953 5.6136 13.1032 4.95161 14.0481 4.56128C14.9931 4.17095 16.0326 4.06984 17.035 4.27076C18.0375 4.47168 18.9578 4.96558 19.6793 5.68992C20.4008 6.41426 20.8912 7.33645 21.0882 8.33967C21.2852 9.3429 21.1801 10.382 20.7861 11.3255C20.3921 12.2689 19.727 13.0742 18.875 13.6393C18.023 14.2044 17.0224 14.504 16 14.5C14.631 14.4974 13.3188 13.9523 12.3507 12.9843C11.3827 12.0162 10.8377 10.704 10.835 9.335H10.855ZM25.185 27.335C25.185 27.4676 25.1323 27.5948 25.0386 27.6886C24.9448 27.7823 24.8176 27.835 24.685 27.835H7.33502C7.20241 27.835 7.07524 27.7823 6.98147 27.6886C6.8877 27.5948 6.83502 27.4676 6.83502 27.335V22.665C6.83502 20.9411 7.51984 19.2878 8.73883 18.0688C9.95781 16.8498 11.6111 16.165 13.335 16.165H18.665C19.5186 16.165 20.3638 16.3331 21.1525 16.6598C21.9411 16.9864 22.6576 17.4652 23.2612 18.0688C23.8648 18.6724 24.3436 19.3889 24.6702 20.1776C24.9969 20.9662 25.165 21.8114 25.165 22.665L25.185 27.335Z" fill="#101357"/>
</g>
<defs>
<clipPath id="clip0_1_157">
<rect width="32" height="32" fill="white"/>
</clipPath>
</defs>
</svg>
