<svg width="32" height="32" viewBox="0 0 32 32" fill="none" xmlns="http://www.w3.org/2000/svg">
<g clip-path="url(#clip0_1_152)">
<path d="M23 24.47L22 12.44C21.9027 11.5816 21.5364 10.776 20.9536 10.1384C20.3707 9.50078 19.6012 9.06382 18.755 8.89V5.25C18.755 4.71957 18.5443 4.21086 18.1692 3.83579C17.7941 3.46071 17.2854 3.25 16.755 3.25H15.255C14.7246 3.25 14.2159 3.46071 13.8408 3.83579C13.4657 4.21086 13.255 4.71957 13.255 5.25V8.89C12.407 9.06194 11.6352 9.49809 11.0504 10.1359C10.4656 10.7736 10.0979 11.5803 10 12.44L9 24.47C8.81 26.78 10.83 28.75 13.38 28.75H18.61C21.16 28.75 23.18 26.78 23 24.47ZM14.75 5.25C14.75 5.11739 14.8027 4.99021 14.8964 4.89645C14.9902 4.80268 15.1174 4.75 15.25 4.75H16.75C16.8826 4.75 17.0098 4.80268 17.1036 4.89645C17.1973 4.99021 17.25 5.11739 17.25 5.25V8.75H14.75V5.25ZM14.385 10.25H17.615C19.115 10.25 20.395 11.25 20.5 12.56L20.68 14.705H11.32L11.5 12.56C11.605 11.265 12.87 10.25 14.385 10.25ZM20.885 26.305C20.5926 26.6096 20.2405 26.8507 19.8509 27.0133C19.4612 27.1758 19.0422 27.2564 18.62 27.25H13.39C12.9678 27.2564 12.5488 27.1758 12.1591 27.0133C11.7695 26.8507 11.4174 26.6096 11.125 26.305C10.9068 26.0787 10.7384 25.8091 10.6308 25.5137C10.5231 25.2183 10.4786 24.9037 10.5 24.59L11.2 16.205H20.8L21.5 24.59C21.5214 24.9037 21.4769 25.2183 21.3692 25.5137C21.2616 25.8091 21.0932 26.0787 20.875 26.305H20.885Z" fill="#101357"/>
</g>
<defs>
<clipPath id="clip0_1_152">
<rect width="32" height="32" fill="white"/>
</clipPath>
</defs>
</svg>
