<svg width="32" height="32" viewBox="0 0 32 32" fill="none" xmlns="http://www.w3.org/2000/svg">
<path d="M29.335 4.58499H2.66498C2.46607 4.58499 2.2753 4.66401 2.13465 4.80466C1.994 4.94531 1.91498 5.13608 1.91498 5.33499V26.665C1.91498 26.8639 1.994 27.0547 2.13465 27.1953C2.2753 27.336 2.46607 27.415 2.66498 27.415H29.335C29.5339 27.415 29.7247 27.336 29.8653 27.1953C30.006 27.0547 30.085 26.8639 30.085 26.665V5.33499C30.085 5.13608 30.006 4.94531 29.8653 4.80466C29.7247 4.66401 29.5339 4.58499 29.335 4.58499ZM28.585 25.415C28.585 25.5476 28.5323 25.6748 28.4385 25.7685C28.3448 25.8623 28.2176 25.915 28.085 25.915H3.91498C3.78237 25.915 3.65519 25.8623 3.56142 25.7685C3.46766 25.6748 3.41498 25.5476 3.41498 25.415V6.58499C3.41498 6.45238 3.46766 6.32521 3.56142 6.23144C3.65519 6.13767 3.78237 6.08499 3.91498 6.08499H28.085C28.2176 6.08499 28.3448 6.13767 28.4385 6.23144C28.5323 6.32521 28.585 6.45238 28.585 6.58499V25.415Z" fill="#101357"/>
<path d="M25.7526 10.134C25.6852 10.084 25.6079 10.0468 25.525 10.0244C25.442 10.002 25.3551 9.99493 25.2692 10.0036C25.1833 10.0122 25.1001 10.0364 25.0243 10.0747C24.9486 10.1131 24.8818 10.1648 24.8277 10.227L16.2407 20.1309C16.2024 20.175 16.1546 20.2112 16.1002 20.2372C16.0458 20.2632 15.9862 20.2785 15.925 20.2819C15.8639 20.2853 15.8027 20.2769 15.7453 20.2571C15.688 20.2374 15.6357 20.2068 15.5919 20.1673L11.7784 16.6516C11.7177 16.5948 11.6453 16.5498 11.5655 16.519C11.4858 16.4882 11.4002 16.4724 11.3138 16.4724C11.2273 16.4724 11.1417 16.4882 11.062 16.519C10.9822 16.5498 10.9099 16.5948 10.8491 16.6516L6.17647 20.9643C6.06033 21.0793 5.9971 21.2315 6.0001 21.3887C6.00311 21.5459 6.07211 21.6959 6.19258 21.8071C6.31304 21.9183 6.47557 21.982 6.64591 21.9847C6.81624 21.9875 6.9811 21.9292 7.10574 21.822L11.0069 18.2253C11.0891 18.15 11.2002 18.1077 11.316 18.1077C11.4318 18.1077 11.5429 18.15 11.625 18.2253L15.5262 21.822C15.5866 21.8791 15.6589 21.9243 15.7387 21.9549C15.8186 21.9855 15.9044 22.0008 15.9908 22H16.0259C16.1183 21.9954 16.2087 21.9728 16.291 21.9338C16.3733 21.8947 16.4458 21.8401 16.5037 21.7734L25.8534 10.9836C25.908 10.922 25.9487 10.851 25.9732 10.7747C25.9977 10.6984 26.0055 10.6184 25.9961 10.5393C25.9868 10.4601 25.9604 10.3836 25.9186 10.314C25.8767 10.2444 25.8203 10.1832 25.7526 10.134Z" fill="#101357"/>
</svg>
