<svg width="32" height="32" viewBox="0 0 32 32" fill="none" xmlns="http://www.w3.org/2000/svg">
<g clip-path="url(#clip0_1_140)">
<path d="M23.41 3.92999H8.59C7.98167 3.91927 7.39388 4.15002 6.95531 4.57172C6.51674 4.99342 6.26313 5.57172 6.25 6.17999V26.68C6.25 26.8741 6.29518 27.0654 6.38197 27.239C6.46875 27.4126 6.59475 27.5636 6.75 27.68C6.91369 27.7989 7.10245 27.8788 7.30179 27.9135C7.50113 27.9481 7.70577 27.9367 7.9 27.88L11.5 25.83L15.5 27.96L15.635 28.015C15.8796 28.0884 16.1404 28.0884 16.385 28.015L20.5 25.83L23.945 27.795L24.105 27.86C24.2984 27.9166 24.5023 27.928 24.7008 27.8934C24.8993 27.8587 25.0872 27.7788 25.25 27.66C25.4061 27.5444 25.5328 27.3936 25.6196 27.2198C25.7065 27.0461 25.7512 26.8543 25.75 26.66V6.15999C25.7317 5.55522 25.4758 4.98203 25.0378 4.56462C24.5998 4.1472 24.0149 3.91919 23.41 3.92999ZM24.25 26.245L21.03 24.41L20.875 24.34C20.6299 24.27 20.3701 24.27 20.125 24.34L16 26.53L12 24.4L11.86 24.34C11.6154 24.2666 11.3546 24.2666 11.11 24.34L7.75 26.245V6.17999C7.7629 5.9695 7.85838 5.77262 8.01569 5.63217C8.173 5.49171 8.3794 5.41905 8.59 5.42999H23.41C23.6206 5.41905 23.827 5.49171 23.9843 5.63217C24.1416 5.77262 24.2371 5.9695 24.25 6.17999V26.245Z" fill="#101357"/>
<path d="M16.2 9.85499C15.887 9.8348 15.5733 9.88193 15.2801 9.99319C14.9868 10.1045 14.7208 10.2773 14.5 10.5C14.0829 11.0286 13.8763 11.693 13.92 12.365V13.64H13.5V14.425H13.9V15.21H13.5V16H13.9V17.63C13.8606 18.3062 14.0745 18.9729 14.5 19.5C14.7226 19.7263 14.9917 19.9016 15.2887 20.0138C15.5856 20.126 15.9034 20.1725 16.22 20.15C16.5334 20.1695 16.8473 20.1216 17.1405 20.0095C17.4338 19.8974 17.6996 19.7236 17.92 19.5C18.3383 18.97 18.545 18.3037 18.5 17.63V16.8H17V17.745C17.031 18.01 16.9673 18.2775 16.82 18.5C16.7482 18.5799 16.659 18.6422 16.5593 18.682C16.4596 18.7219 16.3521 18.7383 16.245 18.73C16.1372 18.7384 16.0289 18.722 15.9284 18.6821C15.8279 18.6423 15.7378 18.58 15.665 18.5C15.5159 18.2835 15.447 18.0218 15.47 17.76V16H17.67V15.215H15.47V14.43H17.67V13.645H15.47V12.27C15.4424 11.9984 15.5114 11.7257 15.665 11.5C15.7378 11.42 15.8279 11.3577 15.9284 11.3179C16.0289 11.278 16.1372 11.2616 16.245 11.27C16.3521 11.2617 16.4596 11.2781 16.5593 11.3179C16.659 11.3578 16.7482 11.4201 16.82 11.5C16.9683 11.7277 17.032 12.0002 17 12.27V12.845H18.5V12.345C18.5388 11.6798 18.3324 11.0234 17.92 10.5C17.6969 10.2746 17.4276 10.1003 17.1307 9.98891C16.8338 9.87756 16.5163 9.83188 16.2 9.85499Z" fill="#101357"/>
</g>
<defs>
<clipPath id="clip0_1_140">
<rect width="32" height="32" fill="white"/>
</clipPath>
</defs>
</svg>
