<svg width="32" height="32" viewBox="0 0 32 32" fill="none" xmlns="http://www.w3.org/2000/svg">
<path d="M16 10.85C13.15 10.85 10.85 13.15 10.85 16C10.85 18.85 13.15 21.15 16 21.15C18.85 21.15 21.15 18.85 21.15 16C21.15 13.15 18.85 10.85 16 10.85ZM16 20.35C13.6 20.35 11.65 18.4 11.65 16C11.65 13.6 13.6 11.65 16 11.65C18.4 11.65 20.35 13.6 20.35 16C20.35 18.4 18.4 20.35 16 20.35Z" fill="#101357" stroke="#101357" stroke-width="0.5" stroke-miterlimit="10"/>
<path d="M26.4 13.15H24.6C24.45 12.75 24.3 12.3 24.1 11.9L25.3 10.7C25.65 10.35 25.8 9.9 25.8 9.45C25.8 9 25.6 8.55 25.3 8.2L23.8 6.7C23.1 6 22 6 21.3 6.7L20.1 7.9C19.7 7.7 19.3 7.5 18.85 7.4V5.6C18.85 4.6 18.05 3.8 17.05 3.8H14.95C13.95 3.8 13.15 4.6 13.15 5.6V7.4C12.7 7.55 12.3 7.7 11.9 7.9L10.7 6.7C9.99999 6 8.89999 6 8.19999 6.7L6.69999 8.2C5.99999 8.9 5.99999 10 6.69999 10.7L7.89999 11.9C7.69999 12.3 7.49999 12.7 7.39999 13.15H5.59999C4.59999 13.15 3.79999 13.95 3.79999 14.95V17.05C3.79999 18.05 4.59999 18.85 5.59999 18.85H7.39999C7.54999 19.3 7.69999 19.7 7.89999 20.1L6.69999 21.3C5.99999 22 5.99999 23.1 6.69999 23.8L8.19999 25.3C8.89999 26 9.99999 26 10.7 25.3L11.9 24.1C12.3 24.3 12.7 24.5 13.15 24.6V26.4C13.15 27.4 13.95 28.2 14.95 28.2H17.05C18.05 28.2 18.85 27.4 18.85 26.4V24.6C19.3 24.45 19.7 24.3 20.1 24.1L21.3 25.3C22 26 23.1 26 23.8 25.3L25.3 23.8C25.65 23.45 25.8 23 25.8 22.55C25.8 22.1 25.6 21.65 25.3 21.3L24.1 20.1C24.3 19.7 24.5 19.3 24.6 18.85H26.4C27.4 18.85 28.2 18.05 28.2 17.05V14.95C28.2 13.95 27.4 13.15 26.4 13.15ZM23.65 17.8C23.6 18.05 23.5 18.35 23.45 18.55C23.35 18.85 23.25 19.15 23.1 19.4C23 19.65 22.85 19.9 22.7 20.1L22.6 20.25L24.25 21.9C24.4 22.05 24.5 22.3 24.5 22.5C24.5 22.75 24.4 22.95 24.25 23.1L23.15 24.2C22.8 24.55 22.25 24.55 21.9 24.2L20.25 22.55L20.1 22.65C19.9 22.8 19.65 22.9 19.4 23.05C19.1 23.2 18.85 23.3 18.55 23.4C18.3 23.5 18.05 23.55 17.75 23.6L17.6 23.65V26.1C17.6 26.6 17.2 26.95 16.75 26.95H15.15C14.65 26.95 14.3 26.55 14.3 26.1V23.65L14.15 23.6C13.9 23.55 13.65 23.45 13.4 23.4C13.1 23.3 12.85 23.2 12.55 23.05C12.3 22.95 12.1 22.8 11.85 22.65L11.7 22.55L10.05 24.2C9.69999 24.55 9.14999 24.55 8.79999 24.2L7.69999 23.1C7.54999 22.95 7.49999 22.75 7.49999 22.5C7.49999 22.25 7.59999 22.05 7.74999 21.9L9.39999 20.25L9.29999 20.1C9.14999 19.85 8.99999 19.65 8.89999 19.4C8.74999 19.1 8.64999 18.85 8.54999 18.55C8.44999 18.3 8.39999 18.05 8.29999 17.8L8.24999 17.65H5.79999C5.29999 17.65 4.94999 17.25 4.94999 16.8V15.2C4.94999 14.7 5.34999 14.35 5.79999 14.35H8.24999L8.29999 14.2C8.34999 13.95 8.44999 13.65 8.54999 13.4C8.64999 13.1 8.74999 12.85 8.89999 12.55C8.99999 12.3 9.14999 12.1 9.29999 11.85L9.39999 11.7L7.74999 10.05C7.39999 9.7 7.39999 9.15 7.74999 8.8L8.84999 7.7C9.19999 7.35 9.74999 7.35 10.1 7.7L11.75 9.35L11.9 9.25C12.15 9.1 12.35 8.95 12.6 8.85C12.9 8.7 13.15 8.6 13.45 8.5C13.7 8.4 13.95 8.35 14.25 8.3L14.4 8.25V5.8C14.4 5.3 14.8 4.95 15.25 4.95H16.85C17.35 4.95 17.7 5.35 17.7 5.8V8.25L17.85 8.3C18.1 8.35 18.35 8.45 18.6 8.5C18.9 8.6 19.2 8.7 19.45 8.85C19.7 8.95 19.95 9.1 20.15 9.25L20.3 9.35L21.95 7.7C22.3 7.35 22.85 7.35 23.2 7.7L24.3 8.8C24.45 9 24.5 9.25 24.5 9.5C24.5 9.75 24.4 9.95 24.25 10.1L22.6 11.75L22.7 11.9C22.85 12.15 22.95 12.35 23.1 12.6C23.25 12.85 23.35 13.15 23.45 13.45C23.55 13.7 23.6 13.95 23.7 14.25L23.75 14.4H26.2C26.7 14.4 27.05 14.8 27.05 15.25V16.85C27.05 17.35 26.65 17.7 26.2 17.7H23.75L23.65 17.8Z" fill="#101357"/>
</svg>
